<svg id="Laag_2" data-name="Laag 2" xmlns="http://www.w3.org/2000/svg" viewBox="0 0 1000 1000"><defs><style>.cls-1{fill:white;}</style></defs><title>logo</title><path class="cls-1" d="M814.88,473.11l-8.29-42.18H803.5c-29.13,34.05-75.76,52.56-130,52.56-93.6,0-145.31-64.69-145.31-129.87,0-110,99-164.57,266.81-164v-4.06c0-18.86-9.65-53.61-83.54-53.43-46.29,0-97.73,16.52-126.87,33.92L559.1,79.13c31.52-18,92.11-39.79,175.56-39.79,145.08,0,197.49,81,197.49,185V368.68c0,42.6,2.41,82.29,6.92,104.43ZM799,274.86c-79.84-.73-133.82,17.25-133.82,64.84,0,31.53,21.92,48.48,56,48.48,36.79,0,66.4-25.07,75.33-52.71,2.09-7.29,2.46-15.94,2.46-23.54Z"/><path class="cls-1" d="M314.88,960.11l-8.29-42.18H303.5c-29.13,34.05-75.76,52.56-130,52.56-93.6,0-145.31-64.69-145.31-129.87,0-110,99-164.57,266.81-164v-4.06c0-18.86-9.65-53.61-83.54-53.43-46.29,0-97.73,16.52-126.87,33.92L59.1,566.13c31.52-18,92.11-39.79,175.56-39.79,145.08,0,197.49,81,197.49,185V855.68c0,42.6,2.41,82.29,6.92,104.43ZM299,761.86c-79.84-.73-133.82,17.25-133.82,64.84,0,31.53,21.92,48.48,56,48.48,36.79,0,66.4-25.07,75.33-52.71,2.09-7.29,2.46-15.94,2.46-23.54Z"/><path class="cls-1" d="M529,674.58c0-54.88-1.55-100.71-3.46-137.86h119.6l6.19,61.9h3.1c15.53-25.12,60.71-72.28,140.24-72.28,88.54,0,164.48,55.5,164.48,190.12V960.11H821.29V735.56c0-60.85-23.19-99.21-75.36-99.21-42,0-65.35,29.47-74.83,53.58-3.46,8.15-4.19,20.13-4.19,30.38v239.8H529Z"/><path class="cls-1" d="M239.11,27.49H376.33v267.3c0,126.06-64.62,185.46-198.2,185.46-28.31,0-69-3.3-98-11.88l15.25-99A277.59,277.59,0,0,0,161.43,378c48.64,0,77.68-19.8,77.68-84.48Z"/></svg>
